<?xml version="1.0" encoding="UTF-8"?>
<svg xmlns="http://www.w3.org/2000/svg" xmlns:xlink="http://www.w3.org/1999/xlink" width="95.853pt" height="101.409pt" viewBox="0 0 95.853 101.409" version="1.1">
<defs>
<clipPath id="clip1">
  <path d="M 0 5 L 87 5 L 87 101.410156 L 0 101.410156 Z M 0 5 "/>
</clipPath>
<clipPath id="clip2">
  <path d="M 0 0 L 95.851563 0 L 95.851563 101.410156 L 0 101.410156 Z M 0 0 "/>
</clipPath>
<clipPath id="clip3">
  <path d="M 74 2 L 95.851563 2 L 95.851563 25 L 74 25 Z M 74 2 "/>
</clipPath>
<clipPath id="clip4">
  <path d="M 9 0 L 95.851563 0 L 95.851563 97 L 9 97 Z M 9 0 "/>
</clipPath>
<clipPath id="clip5">
  <path d="M 0 43 L 95.851563 43 L 95.851563 66 L 0 66 Z M 0 43 "/>
</clipPath>
<clipPath id="clip6">
  <path d="M 0 36 L 95.851563 36 L 95.851563 58 L 0 58 Z M 0 36 "/>
</clipPath>
</defs>
<g id="surface81">
<path style="fill-rule:nonzero;fill:rgb(75%,75%,75%);fill-opacity:1;stroke-width:0.3985;stroke-linecap:butt;stroke-linejoin:miter;stroke:rgb(13.723755%,21.569824%,23.136902%);stroke-opacity:1;stroke-miterlimit:10;" d="M 5.433781 28.848813 C 7.441594 30.274594 18.015813 30.591 29.047063 29.551938 C 40.082219 28.512875 47.398625 26.512875 45.390813 25.083188 " transform="matrix(1,0,0,-1,15.242,82.841)"/>
<g clip-path="url(#clip1)" clip-rule="nonzero">
<path style="fill:none;stroke-width:0.3985;stroke-linecap:butt;stroke-linejoin:miter;stroke:rgb(13.723755%,21.569824%,23.136902%);stroke-opacity:1;stroke-miterlimit:10;" d="M -14.542781 -10.342594 L -14.542781 71.801938 L 65.367375 64.274594 L 65.367375 -17.869937 L -14.542781 -10.342594 " transform="matrix(1,0,0,-1,15.242,82.841)"/>
</g>
<g clip-path="url(#clip2)" clip-rule="nonzero">
<path style="fill:none;stroke-width:0.3985;stroke-linecap:butt;stroke-linejoin:miter;stroke:rgb(13.723755%,21.569824%,23.136902%);stroke-opacity:1;stroke-miterlimit:10;" d="M 65.367375 -17.869937 L 79.910344 -7.526187 L 79.910344 74.614438 L 0.0001875 82.141781 L -14.542781 71.801938 " transform="matrix(1,0,0,-1,15.242,82.841)"/>
</g>
<g clip-path="url(#clip3)" clip-rule="nonzero">
<path style="fill:none;stroke-width:0.3985;stroke-linecap:butt;stroke-linejoin:miter;stroke:rgb(13.723755%,21.569824%,23.136902%);stroke-opacity:1;stroke-miterlimit:10;" d="M 65.367375 64.274594 L 79.910344 74.614438 " transform="matrix(1,0,0,-1,15.242,82.841)"/>
</g>
<g clip-path="url(#clip4)" clip-rule="nonzero">
<path style="fill:none;stroke-width:0.3985;stroke-linecap:butt;stroke-linejoin:miter;stroke:rgb(13.723755%,21.569824%,23.136902%);stroke-opacity:1;stroke-dasharray:2.98883,2.98883;stroke-miterlimit:10;" d="M 0.0001875 82.141781 L 0.0001875 0.00115625 L 79.910344 -7.526187 " transform="matrix(1,0,0,-1,15.242,82.841)"/>
</g>
<path style="fill:none;stroke-width:0.3985;stroke-linecap:butt;stroke-linejoin:miter;stroke:rgb(13.723755%,21.569824%,23.136902%);stroke-opacity:1;stroke-dasharray:2.98883,2.98883;stroke-miterlimit:10;" d="M 0.0001875 0.00115625 L -14.542781 -10.342594 " transform="matrix(1,0,0,-1,15.242,82.841)"/>
<g clip-path="url(#clip5)" clip-rule="nonzero">
<path style="fill:none;stroke-width:0.3985;stroke-linecap:butt;stroke-linejoin:miter;stroke:rgb(13.723755%,21.569824%,23.136902%);stroke-opacity:1;stroke-miterlimit:10;" d="M -14.542781 30.731625 L 65.367375 23.204281 L 79.910344 33.544125 " transform="matrix(1,0,0,-1,15.242,82.841)"/>
</g>
<g clip-path="url(#clip6)" clip-rule="nonzero">
<path style="fill:none;stroke-width:0.3985;stroke-linecap:butt;stroke-linejoin:miter;stroke:rgb(13.723755%,21.569824%,23.136902%);stroke-opacity:1;stroke-dasharray:2.98883,2.98883;stroke-miterlimit:10;" d="M 79.910344 33.544125 L 0.0001875 41.071469 L -14.542781 30.731625 " transform="matrix(1,0,0,-1,15.242,82.841)"/>
</g>
</g>
</svg>
